 <svg
    version="1.1"
    xmlns="http://www.w3.org/2000/svg"
    xlink="http://www.w3.org/1999/xlink"
    width="32"
    height="32"
    viewBox="0 0 32 32"
  >
    <path
      fill="#f1f252"
      d="M31.25 16c0 8.422-6.828 15.25-15.25 15.25s-15.25-6.828-15.25-15.25c0-8.422 6.828-15.25 15.25-15.25s15.25 6.828 15.25 15.25z"
    ></path>
    <path
      fill="#1c1b18"
      d="M16.241 8.134c1.684 0 2.629 0.274 2.629 0.274l2.797 5.71-0.024 0.024-3.599-2.147c-2.086-1.241-3.599-1.894-4.831-1.845-1.302 0.024-2.083 1.074-2.083 2.592 0.046 3.889 3.742 8.677 7.415 8.677 1.497 0 2.278-0.482 2.736-1.064l-5.438-5.963v-0.024h7.466c0.101 0.534 0.159 1.077 0.165 1.62 0 4.364-3.34 7.878-7.46 7.878-4.139 0-7.485-3.514-7.485-7.878-0.006-4.34 3.334-7.854 7.713-7.854z"
    ></path>
  </svg>